<svg width="46" height="58" viewBox="0 0 46 58" fill="none" xmlns="http://www.w3.org/2000/svg">
<path d="M45.4926 21.5754C46.3894 20.0002 46.0748 18.0445 44.7275 16.8193C44.1631 16.3059 43.9057 15.5262 44.0559 14.7843C44.4145 13.0135 43.5014 11.2491 41.8356 10.4938C41.1377 10.1774 40.6482 9.51399 40.5582 8.76271C40.3433 6.96946 38.9212 5.56919 37.0999 5.35781C36.3368 5.26922 35.6632 4.78721 35.3417 4.10005C34.5745 2.45996 32.7823 1.56118 30.9841 1.91394C30.2304 2.06189 29.4385 1.80836 28.9172 1.25272C27.6729 -0.0736931 25.6862 -0.383291 24.0866 0.499397C23.4163 0.869261 22.5836 0.869374 21.9134 0.499397C20.3136 -0.383291 18.3273 -0.0736931 17.0828 1.25272C16.5615 1.80836 15.7695 2.06223 15.0159 1.91394C13.2172 1.5613 11.4255 2.45996 10.6582 4.10005C10.3368 4.78721 9.66305 5.26911 8.90012 5.3577C7.07878 5.56919 5.65657 6.96935 5.44176 8.76271C5.35179 9.51399 4.86222 10.1773 4.16441 10.4936C2.49863 11.249 1.58543 13.0134 1.94406 14.7842C2.09432 15.5262 1.83694 16.3059 1.27248 16.8192C-0.074716 18.0443 -0.389394 20.0002 0.507353 21.5753C0.883126 22.2353 0.883126 23.055 0.507353 23.7149C-0.389394 25.2901 -0.0748311 27.2458 1.27248 28.4711C1.83694 28.9845 2.09432 29.7641 1.94406 30.5059C1.58554 32.2767 2.49863 34.0411 4.16441 34.7965C4.86234 35.113 5.35179 35.7763 5.44176 36.5276C5.62044 38.0188 6.63432 39.2375 8.0181 39.7277L1.93474 51.9981C1.8007 52.2683 1.82187 52.5881 1.99008 52.839C2.15829 53.0899 2.448 53.2365 2.75371 53.2193L8.59107 52.9286L11.9496 57.6386C12.1119 57.8662 12.3761 58 12.6557 58C12.6783 58 12.7011 57.9991 12.7239 57.9974C13.0283 57.9737 13.2973 57.7933 13.4313 57.5231L19.5093 45.2626C20.3177 45.3586 21.1585 45.2078 21.9133 44.7912C22.5835 44.4213 23.416 44.4212 24.0865 44.7912C24.6958 45.1274 25.361 45.2907 26.0201 45.2906C26.1932 45.2906 26.3655 45.2782 26.5365 45.2558L32.618 57.5231C32.7519 57.7933 33.0209 57.9737 33.3254 57.9974C33.3481 57.9992 33.3709 58 33.3936 58C33.6732 58 33.9373 57.8662 34.0997 57.6386L37.4582 52.9286L43.2955 53.2193C43.5995 53.2349 43.891 53.0898 44.0592 52.839C44.2275 52.5881 44.2485 52.2683 44.1145 51.9981L38.0239 39.7125C39.386 39.2127 40.3813 38.0037 40.5581 36.5275C40.6481 35.7762 41.1377 35.113 41.8355 34.7965C43.5013 34.0411 44.4145 32.2767 44.0558 30.5059C43.9056 29.7639 44.1629 28.9843 44.7274 28.4709C46.0746 27.2458 46.3893 25.2899 45.4925 23.7148C45.1169 23.0552 45.1169 22.2353 45.4926 21.5754ZM12.5217 55.4838L9.72967 51.5682C9.55927 51.3293 9.27692 51.1922 8.97985 51.2079L4.12702 51.4496L9.70907 40.1898C10.1199 40.4131 10.4575 40.7617 10.6581 41.1904C11.068 42.067 11.7709 42.7313 12.6108 43.1066L10.7656 46.8284C10.5566 47.2501 10.7343 47.7587 11.1626 47.9645C11.2844 48.0231 11.4134 48.0508 11.5404 48.0508C11.8598 48.0508 12.1669 47.8755 12.3166 47.5737L14.3607 43.4504C14.5778 43.4436 14.7967 43.4196 15.0158 43.3766C15.7695 43.2285 16.5613 43.4821 17.0827 44.0378C17.3216 44.2926 17.5882 44.5096 17.874 44.688L12.5217 55.4838ZM41.9221 51.4496L37.0692 51.208C36.7726 51.1917 36.4897 51.3293 36.3193 51.5683L33.5273 55.4839L28.163 44.6635C28.4346 44.4896 28.6885 44.2813 28.917 44.0377C29.4383 43.482 30.2302 43.2287 30.9839 43.3765C31.2198 43.4228 31.4557 43.447 31.6891 43.4514L33.7328 47.5737C33.8823 47.8754 34.1893 48.0507 34.5088 48.0507C34.6358 48.0507 34.7649 48.023 34.8868 47.9644C35.315 47.7586 35.4928 47.2499 35.2837 46.8283L33.4295 43.088C34.2514 42.7096 34.9383 42.0526 35.3418 41.1903C35.5487 40.748 35.9018 40.3917 36.3304 40.1696L41.9221 51.4496ZM43.5567 27.2229C42.5539 28.1348 42.0969 29.5202 42.3637 30.8382C42.5655 31.8351 42.0516 32.8281 41.114 33.2532C39.8741 33.8154 39.0045 34.9938 38.8446 36.3286C38.7237 37.338 37.9231 38.1261 36.898 38.2452C35.5424 38.4027 34.3454 39.2588 33.7744 40.4796C33.3426 41.4028 32.3339 41.9091 31.3214 41.71C29.983 41.4476 28.5756 41.8974 27.6495 42.8848C26.9491 43.6315 25.831 43.8058 24.9304 43.3089C24.3349 42.9803 23.6676 42.8159 23 42.8159C22.3326 42.8159 21.6649 42.9803 21.0696 43.3088C20.169 43.8057 19.0509 43.6314 18.3505 42.8848C17.4243 41.8975 16.0171 41.4474 14.6786 41.71C13.6662 41.9088 12.6575 41.4027 12.2257 40.4796C11.6547 39.2588 10.4579 38.4027 9.10215 38.2452C8.07689 38.1261 7.27644 37.3379 7.15552 36.3286C6.99559 34.9939 6.126 33.8154 4.88616 33.2531C3.94845 32.828 3.43461 31.8349 3.63642 30.8381C3.90323 29.52 3.44611 28.1347 2.4434 27.2228C1.68507 26.5332 1.50788 25.4323 2.01263 24.5456C2.68019 23.3733 2.68019 21.9167 2.01263 20.7443C1.50777 19.8576 1.68495 18.7568 2.44329 18.0671C3.44611 17.1552 3.90312 15.7698 3.63642 14.4518C3.43461 13.455 3.94856 12.4619 4.88616 12.0368C6.126 11.4745 6.99559 10.2962 7.15552 8.9614C7.27644 7.95184 8.077 7.16385 9.10215 7.04479C10.4577 6.88733 11.6548 6.03115 12.2257 4.81043C12.6575 3.88719 13.666 3.38128 14.6787 3.57997C16.0179 3.84278 17.4244 3.39249 18.3506 2.40524C19.051 1.65861 20.1693 1.48404 21.0697 1.98123C22.2604 2.63838 23.7398 2.63838 24.9305 1.98123C25.8311 1.48404 26.9491 1.65849 27.6496 2.40524C28.5758 3.39249 29.9826 3.84267 31.3215 3.57997C32.3344 3.38105 33.3425 3.88742 33.7744 4.81043C34.3454 6.03115 35.5423 6.88733 36.898 7.04479C37.9232 7.16385 38.7237 7.95207 38.8446 8.9614C39.0045 10.2961 39.8741 11.4747 41.114 12.0368C42.0517 12.4619 42.5655 13.455 42.3637 14.4518C42.0969 15.7698 42.554 17.1552 43.5568 18.0671C44.3152 18.7567 44.4924 19.8576 43.9876 20.7443C43.32 21.9169 43.32 23.3735 43.9876 24.5457C44.4921 25.4324 44.3149 26.5333 43.5567 27.2229Z" fill="#1C1C1C"/>
<path d="M36.7746 19.0135C36.7746 17.5433 35.5601 16.3475 34.0671 16.3475H28.1915C28.6872 15.4347 29.3315 14.1021 29.861 12.5156C30.2655 11.3045 29.5859 9.98804 28.3468 9.58136L28.2936 9.56392C27.158 9.19088 25.9087 9.71923 25.3877 10.7925C24.6258 12.3626 22.9296 15.1469 20.0625 16.3477H19.4995C19.003 15.7916 18.276 15.4396 17.4666 15.4396H13.7777C12.2848 15.4396 11.0703 16.6354 11.0703 18.1052V30.8177C11.0703 32.2875 12.2848 33.4833 13.7777 33.4833H17.4666C18.276 33.4833 19.003 33.1313 19.4995 32.5752H31.3005C32.7934 32.5752 34.0079 31.3794 34.0079 29.9096C34.0079 29.4148 33.8703 28.951 33.6307 28.5536C34.4094 28.085 34.9301 27.24 34.9301 26.2776C34.9301 25.7828 34.7924 25.319 34.5529 24.9216C35.3316 24.4529 35.8522 23.608 35.8522 22.6455C35.8522 22.1507 35.7146 21.687 35.4751 21.2896C36.2539 20.8209 36.7746 19.9758 36.7746 19.0135ZM34.0671 19.9796H31.3004C30.8238 19.9796 30.4375 20.36 30.4375 20.8292C30.4375 21.2984 30.8238 21.6788 31.3004 21.6788H33.1448C33.6862 21.6788 34.1265 22.1124 34.1265 22.6453C34.1265 23.1782 33.6861 23.6118 33.1448 23.6118H30.3781C29.9015 23.6118 29.5152 23.9922 29.5152 24.4614C29.5152 24.9306 29.9015 25.311 30.3781 25.311H32.2226C32.7639 25.311 33.2042 25.7447 33.2042 26.2776C33.2042 26.8104 32.7638 27.2441 32.2226 27.2441H29.4559C28.9794 27.2441 28.593 27.6245 28.593 28.0937C28.593 28.5629 28.9794 28.9433 29.4559 28.9433H31.3004C31.8417 28.9433 32.282 29.3769 32.282 29.9098C32.282 30.4427 31.8416 30.8763 31.3004 30.8763H20.174V22.6457C20.174 22.1764 19.7876 21.796 19.3111 21.796C18.8345 21.796 18.4482 22.1764 18.4482 22.6457V30.8179C18.4482 31.3509 18.0077 31.7844 17.4665 31.7844H13.7776C13.2362 31.7844 12.7959 31.3508 12.7959 30.8179V18.1051C12.7959 17.5721 13.2364 17.1386 13.7776 17.1386H17.4665C18.0078 17.1386 18.4482 17.5722 18.4482 18.1051V19.0131C18.4482 19.4823 18.8345 19.8627 19.3111 19.8627C19.7876 19.8627 20.174 19.4823 20.174 19.0131V18.0467H20.2334C20.3431 18.0467 20.4519 18.026 20.5539 17.9858C24.0561 16.6065 26.0614 13.3457 26.9448 11.5248C27.0911 11.2234 27.4366 11.0737 27.7476 11.1756L27.8008 11.1931C28.1414 11.3048 28.3302 11.6601 28.2217 11.9851C27.3038 14.7349 25.9842 16.7069 25.9713 16.7259C25.7947 16.9866 25.7784 17.3218 25.9284 17.5981C26.0786 17.8742 26.371 18.0468 26.6893 18.0468H34.0674C34.6087 18.0468 35.049 18.4804 35.049 19.0133C35.049 19.5462 34.6085 19.9796 34.0671 19.9796Z" fill="#1C1C1C"/>
<path d="M15.6364 29.8514C16.1129 29.8514 16.4993 29.471 16.4993 29.0018C16.4993 28.5325 16.1129 28.1522 15.6364 28.1522C15.1598 28.1522 14.7734 28.5325 14.7734 29.0018C14.7734 29.471 15.1598 29.8514 15.6364 29.8514Z" fill="#1C1C1C"/>
</svg>
