<svg width="54" height="46" viewBox="0 0 54 46" fill="none" xmlns="http://www.w3.org/2000/svg">
<path d="M52.3092 21.0055V11.5701C52.3092 9.28122 50.4373 7.41895 48.1365 7.41895H47.964L47.6769 4.75296C47.6304 4.32058 47.4174 3.93215 47.077 3.65915C46.7368 3.38614 46.3097 3.26128 45.8754 3.30765L45.0011 3.40083L44.5709 1.30289C44.3904 0.423327 43.5245 -0.146614 42.6403 0.033119L6.2444 7.41895H4.17277C1.87186 7.41895 0 9.28122 0 11.5701V41.8488C0 44.1377 1.87186 46 4.17277 46H48.1364C50.4372 46 52.3091 44.1377 52.3091 41.8488V32.4135C53.2908 32.0842 54 31.1601 54 30.0738V23.3453C54.0001 22.2589 53.2909 21.335 52.3092 21.0055ZM46.0439 4.87247C46.0495 4.87216 46.0662 4.87016 46.0839 4.88412C46.1014 4.89828 46.1033 4.91507 46.1039 4.92053L46.3729 7.41895H22.1491L46.0439 4.87247ZM42.9566 1.57527C42.9857 1.56982 43.0149 1.58828 43.0208 1.61745L43.421 3.56912L21.7501 5.87868L42.9566 1.57527ZM50.7272 41.8488C50.7272 43.27 49.5649 44.4263 48.1364 44.4263H4.17277C2.7443 44.4263 1.58203 43.27 1.58203 41.8488V41.7946H42.2182C42.6551 41.7946 43.0092 41.4424 43.0092 41.0077C43.0092 40.573 42.6551 40.2207 42.2182 40.2207H1.58203V13.1982H42.2182C42.6551 13.1982 43.0092 12.846 43.0092 12.4113C43.0092 11.9766 42.6551 11.6244 42.2182 11.6244H1.58203V11.5701C1.58203 10.1489 2.7443 8.99279 4.17277 8.99279H47.2501C47.2508 8.99279 47.2516 8.9929 47.2523 8.9929C47.2529 8.9929 47.2536 8.99279 47.2542 8.99279H48.1365C49.565 8.99279 50.7272 10.149 50.7272 11.5701V20.8761H48.0819V12.4113C48.0819 11.9766 47.7279 11.6244 47.2909 11.6244H45.5998C45.1629 11.6244 44.8088 11.9766 44.8088 12.4113C44.8088 12.846 45.1629 13.1982 45.5998 13.1982H46.4999V20.8762H39.6819C38.3133 20.8762 37.2 21.9839 37.2 23.3453V30.0739C37.2 31.4354 38.3134 32.5429 39.6819 32.5429H46.4999V40.2209H45.5998C45.1629 40.2209 44.8088 40.5731 44.8088 41.0078C44.8088 41.4425 45.1629 41.7947 45.5998 41.7947H47.2909C47.7279 41.7947 48.0819 41.4425 48.0819 41.0078V32.5429H50.7272V41.8488ZM52.4181 30.0739C52.4181 30.5672 52.015 30.9684 51.5192 30.9691C51.5188 30.9691 51.5185 30.9691 51.5181 30.9691C51.5174 30.9691 51.5167 30.9692 51.5161 30.9692H39.6819C39.1856 30.9692 38.782 30.5676 38.782 30.074V23.3453C38.782 22.8516 39.1856 22.4501 39.6819 22.4501H51.5141C51.5155 22.4501 51.5168 22.4503 51.5182 22.4503C51.5189 22.4503 51.5196 22.4502 51.5202 22.4502C52.0155 22.4513 52.4181 22.8524 52.4181 23.3453V30.0739Z" fill="#1C1C1C"/>
<path d="M43.0639 24.2405C41.6954 24.2405 40.582 25.3482 40.582 26.7096C40.582 28.071 41.6955 29.1786 43.0639 29.1786C44.4324 29.1786 45.5458 28.071 45.5458 26.7096C45.5458 25.3482 44.4324 24.2405 43.0639 24.2405ZM43.0639 27.6048C42.5677 27.6048 42.1641 27.2032 42.1641 26.7096C42.1641 26.2159 42.5677 25.8144 43.0639 25.8144C43.5602 25.8144 43.9638 26.2159 43.9638 26.7096C43.9638 27.2032 43.5602 27.6048 43.0639 27.6048Z" fill="#1C1C1C"/>
</svg>
