<svg width="54" height="56" viewBox="0 0 54 56" fill="none" xmlns="http://www.w3.org/2000/svg">
<path d="M42.1923 10.0284L21.6819 0.0816209C21.4575 -0.027207 21.1962 -0.027207 20.9719 0.0816209L0.461533 10.0284C0.179322 10.1652 0 10.4522 0 10.7671V34.9234C0 35.2382 0.179322 35.5253 0.461533 35.6621L20.9718 45.6087C21.084 45.6632 21.2055 45.6903 21.3269 45.6903C21.4483 45.6903 21.5697 45.6631 21.6819 45.6087L25.8332 43.5956C26.2393 43.3986 26.4096 42.9082 26.2136 42.5002C26.0175 42.0922 25.5293 41.9214 25.1232 42.118L22.1436 43.5631V21.2287L26.1857 19.2684C26.5918 19.0714 26.7621 18.581 26.566 18.173C26.3699 17.7651 25.8817 17.5942 25.4756 17.7909L21.3269 19.803L2.69483 10.7671L8.91208 7.75196L28.6437 17.321V25.2074C28.6437 25.4897 28.7882 25.7521 29.0262 25.9023C29.1583 25.9856 29.3091 26.0277 29.4604 26.0277C29.5814 26.0277 29.7028 26.0007 29.8153 25.9461L34.7661 23.5451C35.0483 23.4083 35.2276 23.1213 35.2276 22.8064V14.8834L41.0207 12.074V27.1233C41.0207 27.5764 41.3863 27.9436 41.8373 27.9436C42.2882 27.9436 42.6539 27.5764 42.6539 27.1233V10.7671C42.6539 10.4523 42.4745 10.1652 42.1923 10.0284ZM20.5103 21.2287V43.5632L1.63317 34.4086V12.074L20.5103 21.2287ZM29.4224 15.877L10.8253 6.85793L14.3453 5.14403L32.9496 14.1665L29.4224 15.877ZM33.5945 22.2915L30.2768 23.9004V17.2843L33.5945 15.6754V22.2915ZM34.8225 13.258C34.8038 13.2469 34.7858 13.235 34.7661 13.2255L16.1958 4.2196L21.3269 1.73121L39.9589 10.767L34.8225 13.258Z" fill="#1C1C1C"/>
<path d="M7.713 31.7119L4.70307 30.2522C4.29685 30.055 3.80875 30.2262 3.61266 30.6342C3.41657 31.0422 3.58686 31.5326 3.99297 31.7296L7.0029 33.1893C7.11733 33.2449 7.23829 33.2711 7.3573 33.2711C7.66085 33.2711 7.95242 33.1003 8.0932 32.8073C8.2894 32.3992 8.11911 31.9089 7.713 31.7119Z" fill="#1C1C1C"/>
<path d="M10.4828 29.3525L4.70698 26.5514C4.30065 26.3542 3.81255 26.5255 3.61657 26.9335C3.42048 27.3414 3.59076 27.8319 3.99688 28.0289L9.77274 30.8298C9.88717 30.8854 10.0081 30.9116 10.1271 30.9116C10.4307 30.9116 10.7223 30.7408 10.863 30.4478C11.0592 30.0399 10.889 29.5495 10.4828 29.3525Z" fill="#1C1C1C"/>
<path d="M40.9652 29.8101C33.7774 29.8101 27.9297 35.6845 27.9297 42.9051C27.9297 50.1257 33.7774 56 40.9652 56C48.153 56 54.0007 50.1257 54.0007 42.905C54.0007 35.6843 48.1531 29.8101 40.9652 29.8101ZM40.9652 54.3594C34.6779 54.3594 29.5629 49.2211 29.5629 42.905C29.5629 36.5889 34.6779 31.4506 40.9652 31.4506C47.2524 31.4506 52.3675 36.5891 52.3675 42.905C52.3675 49.221 47.2526 54.3594 40.9652 54.3594Z" fill="#1C1C1C"/>
<path d="M49.6924 42.0846H43.3925C43.1373 41.3243 42.538 40.7222 41.7811 40.4658V34.1372C41.7811 33.6842 41.4155 33.3169 40.9646 33.3169C40.5136 33.3169 40.148 33.6842 40.148 34.1372V40.4658C39.1345 40.8092 38.4023 41.7724 38.4023 42.9049C38.4023 44.3241 39.5518 45.4787 40.9646 45.4787C42.0918 45.4787 43.0507 44.7433 43.3925 43.7252H49.6924C50.1434 43.7252 50.509 43.3579 50.509 42.9049C50.509 42.4519 50.1434 42.0846 49.6924 42.0846ZM40.9646 43.8381C40.4523 43.8381 40.0355 43.4194 40.0355 42.9049C40.0355 42.3903 40.4523 41.9716 40.9646 41.9716C41.4768 41.9716 41.8935 42.3903 41.8935 42.9049C41.8936 43.4194 41.4768 43.8381 40.9646 43.8381Z" fill="#1C1C1C"/>
</svg>
